<?xml version="1.0" encoding="UTF-8" standalone="no"?>
<svg
   xmlns:dc="http://purl.org/dc/elements/1.1/"
   xmlns:cc="http://creativecommons.org/ns#"
   xmlns:rdf="http://www.w3.org/1999/02/22-rdf-syntax-ns#"
   xmlns:svg="http://www.w3.org/2000/svg"
   xmlns="http://www.w3.org/2000/svg"
   xmlns:xlink="http://www.w3.org/1999/xlink"
   xmlns:sodipodi="http://sodipodi.sourceforge.net/DTD/sodipodi-0.dtd"
   xmlns:inkscape="http://www.inkscape.org/namespaces/inkscape"
   version="1.1"
   width="250"
   height="250"
   viewBox="0 0 250 250"
   id="svg2"
   inkscape:version="0.91 r13725"
   sodipodi:docname="qrcode.svg">
  <metadata
     id="metadata479">
    <rdf:RDF>
      <cc:Work
         rdf:about="">
        <dc:format>image/svg+xml</dc:format>
        <dc:type
           rdf:resource="http://purl.org/dc/dcmitype/StillImage" />
      </cc:Work>
    </rdf:RDF>
  </metadata>
  <sodipodi:namedview
     pagecolor="#ffffff"
     bordercolor="#666666"
     borderopacity="1"
     objecttolerance="10"
     gridtolerance="10"
     guidetolerance="10"
     inkscape:pageopacity="0"
     inkscape:pageshadow="2"
     inkscape:window-width="1280"
     inkscape:window-height="963"
     id="namedview477"
     showgrid="false"
     inkscape:zoom="2.8504375"
     inkscape:cx="125.70165"
     inkscape:cy="100.52389"
     inkscape:window-x="0"
     inkscape:window-y="0"
     inkscape:window-maximized="1"
     inkscape:current-layer="svg2" />
  <desc
     id="desc4" />
  <defs
     id="defs8">
    <rect
       id="p"
       width="10"
       height="10" />
  </defs>
  <use
     height="100%"
     width="100%"
     style="fill:#000000"
     id="use13"
     xlink:href="#p"
     y="20"
     x="20" />
  <use
     height="100%"
     width="100%"
     style="fill:#000000"
     id="use15"
     xlink:href="#p"
     y="30"
     x="20" />
  <use
     height="100%"
     width="100%"
     style="fill:#000000"
     id="use17"
     xlink:href="#p"
     y="40"
     x="20" />
  <use
     height="100%"
     width="100%"
     style="fill:#000000"
     id="use19"
     xlink:href="#p"
     y="50"
     x="20" />
  <use
     height="100%"
     width="100%"
     style="fill:#000000"
     id="use21"
     xlink:href="#p"
     y="60"
     x="20" />
  <use
     height="100%"
     width="100%"
     style="fill:#000000"
     id="use23"
     xlink:href="#p"
     y="70"
     x="20" />
  <use
     height="100%"
     width="100%"
     style="fill:#000000"
     id="use25"
     xlink:href="#p"
     y="80"
     x="20" />
  <use
     height="100%"
     width="100%"
     style="fill:#000000"
     id="use27"
     xlink:href="#p"
     y="100"
     x="20" />
  <use
     height="100%"
     width="100%"
     style="fill:#000000"
     id="use29"
     xlink:href="#p"
     y="110"
     x="20" />
  <use
     height="100%"
     width="100%"
     style="fill:#000000"
     id="use31"
     xlink:href="#p"
     y="120"
     x="20" />
  <use
     height="100%"
     width="100%"
     style="fill:#000000"
     id="use33"
     xlink:href="#p"
     y="130"
     x="20" />
  <use
     height="100%"
     width="100%"
     style="fill:#000000"
     id="use35"
     xlink:href="#p"
     y="160"
     x="20" />
  <use
     height="100%"
     width="100%"
     style="fill:#000000"
     id="use37"
     xlink:href="#p"
     y="170"
     x="20" />
  <use
     height="100%"
     width="100%"
     style="fill:#000000"
     id="use39"
     xlink:href="#p"
     y="180"
     x="20" />
  <use
     height="100%"
     width="100%"
     style="fill:#000000"
     id="use41"
     xlink:href="#p"
     y="190"
     x="20" />
  <use
     height="100%"
     width="100%"
     style="fill:#000000"
     id="use43"
     xlink:href="#p"
     y="200"
     x="20" />
  <use
     height="100%"
     width="100%"
     style="fill:#000000"
     id="use45"
     xlink:href="#p"
     y="210"
     x="20" />
  <use
     height="100%"
     width="100%"
     style="fill:#000000"
     id="use47"
     xlink:href="#p"
     y="220"
     x="20" />
  <use
     height="100%"
     width="100%"
     style="fill:#000000"
     id="use49"
     xlink:href="#p"
     y="20"
     x="30" />
  <use
     height="100%"
     width="100%"
     style="fill:#000000"
     id="use51"
     xlink:href="#p"
     y="80"
     x="30" />
  <use
     height="100%"
     width="100%"
     style="fill:#000000"
     id="use53"
     xlink:href="#p"
     y="100"
     x="30" />
  <use
     height="100%"
     width="100%"
     style="fill:#000000"
     id="use55"
     xlink:href="#p"
     y="120"
     x="30" />
  <use
     height="100%"
     width="100%"
     style="fill:#000000"
     id="use57"
     xlink:href="#p"
     y="140"
     x="30" />
  <use
     height="100%"
     width="100%"
     style="fill:#000000"
     id="use59"
     xlink:href="#p"
     y="160"
     x="30" />
  <use
     height="100%"
     width="100%"
     style="fill:#000000"
     id="use61"
     xlink:href="#p"
     y="220"
     x="30" />
  <use
     height="100%"
     width="100%"
     style="fill:#000000"
     id="use63"
     xlink:href="#p"
     y="20"
     x="40" />
  <use
     height="100%"
     width="100%"
     style="fill:#000000"
     id="use65"
     xlink:href="#p"
     y="40"
     x="40" />
  <use
     height="100%"
     width="100%"
     style="fill:#000000"
     id="use67"
     xlink:href="#p"
     y="50"
     x="40" />
  <use
     height="100%"
     width="100%"
     style="fill:#000000"
     id="use69"
     xlink:href="#p"
     y="60"
     x="40" />
  <use
     height="100%"
     width="100%"
     style="fill:#000000"
     id="use71"
     xlink:href="#p"
     y="80"
     x="40" />
  <use
     height="100%"
     width="100%"
     style="fill:#000000"
     id="use73"
     xlink:href="#p"
     y="110"
     x="40" />
  <use
     height="100%"
     width="100%"
     style="fill:#000000"
     id="use75"
     xlink:href="#p"
     y="130"
     x="40" />
  <use
     height="100%"
     width="100%"
     style="fill:#000000"
     id="use77"
     xlink:href="#p"
     y="140"
     x="40" />
  <use
     height="100%"
     width="100%"
     style="fill:#000000"
     id="use79"
     xlink:href="#p"
     y="160"
     x="40" />
  <use
     height="100%"
     width="100%"
     style="fill:#000000"
     id="use81"
     xlink:href="#p"
     y="180"
     x="40" />
  <use
     height="100%"
     width="100%"
     style="fill:#000000"
     id="use83"
     xlink:href="#p"
     y="190"
     x="40" />
  <use
     height="100%"
     width="100%"
     style="fill:#000000"
     id="use85"
     xlink:href="#p"
     y="200"
     x="40" />
  <use
     height="100%"
     width="100%"
     style="fill:#000000"
     id="use87"
     xlink:href="#p"
     y="220"
     x="40" />
  <use
     height="100%"
     width="100%"
     style="fill:#000000"
     id="use89"
     xlink:href="#p"
     y="20"
     x="50" />
  <use
     height="100%"
     width="100%"
     style="fill:#000000"
     id="use91"
     xlink:href="#p"
     y="40"
     x="50" />
  <use
     height="100%"
     width="100%"
     style="fill:#000000"
     id="use93"
     xlink:href="#p"
     y="50"
     x="50" />
  <use
     height="100%"
     width="100%"
     style="fill:#000000"
     id="use95"
     xlink:href="#p"
     y="60"
     x="50" />
  <use
     height="100%"
     width="100%"
     style="fill:#000000"
     id="use97"
     xlink:href="#p"
     y="80"
     x="50" />
  <use
     height="100%"
     width="100%"
     style="fill:#000000"
     id="use99"
     xlink:href="#p"
     y="100"
     x="50" />
  <use
     height="100%"
     width="100%"
     style="fill:#000000"
     id="use101"
     xlink:href="#p"
     y="130"
     x="50" />
  <use
     height="100%"
     width="100%"
     style="fill:#000000"
     id="use103"
     xlink:href="#p"
     y="140"
     x="50" />
  <use
     height="100%"
     width="100%"
     style="fill:#000000"
     id="use105"
     xlink:href="#p"
     y="160"
     x="50" />
  <use
     height="100%"
     width="100%"
     style="fill:#000000"
     id="use107"
     xlink:href="#p"
     y="180"
     x="50" />
  <use
     height="100%"
     width="100%"
     style="fill:#000000"
     id="use109"
     xlink:href="#p"
     y="190"
     x="50" />
  <use
     height="100%"
     width="100%"
     style="fill:#000000"
     id="use111"
     xlink:href="#p"
     y="200"
     x="50" />
  <use
     height="100%"
     width="100%"
     style="fill:#000000"
     id="use113"
     xlink:href="#p"
     y="220"
     x="50" />
  <use
     height="100%"
     width="100%"
     style="fill:#000000"
     id="use115"
     xlink:href="#p"
     y="20"
     x="60" />
  <use
     height="100%"
     width="100%"
     style="fill:#000000"
     id="use117"
     xlink:href="#p"
     y="40"
     x="60" />
  <use
     height="100%"
     width="100%"
     style="fill:#000000"
     id="use119"
     xlink:href="#p"
     y="50"
     x="60" />
  <use
     height="100%"
     width="100%"
     style="fill:#000000"
     id="use121"
     xlink:href="#p"
     y="60"
     x="60" />
  <use
     height="100%"
     width="100%"
     style="fill:#000000"
     id="use123"
     xlink:href="#p"
     y="80"
     x="60" />
  <use
     height="100%"
     width="100%"
     style="fill:#000000"
     id="use125"
     xlink:href="#p"
     y="110"
     x="60" />
  <use
     height="100%"
     width="100%"
     style="fill:#000000"
     id="use127"
     xlink:href="#p"
     y="120"
     x="60" />
  <use
     height="100%"
     width="100%"
     style="fill:#000000"
     id="use129"
     xlink:href="#p"
     y="130"
     x="60" />
  <use
     height="100%"
     width="100%"
     style="fill:#000000"
     id="use131"
     xlink:href="#p"
     y="160"
     x="60" />
  <use
     height="100%"
     width="100%"
     style="fill:#000000"
     id="use133"
     xlink:href="#p"
     y="180"
     x="60" />
  <use
     height="100%"
     width="100%"
     style="fill:#000000"
     id="use135"
     xlink:href="#p"
     y="190"
     x="60" />
  <use
     height="100%"
     width="100%"
     style="fill:#000000"
     id="use137"
     xlink:href="#p"
     y="200"
     x="60" />
  <use
     height="100%"
     width="100%"
     style="fill:#000000"
     id="use139"
     xlink:href="#p"
     y="220"
     x="60" />
  <use
     height="100%"
     width="100%"
     style="fill:#000000"
     id="use141"
     xlink:href="#p"
     y="20"
     x="70" />
  <use
     height="100%"
     width="100%"
     style="fill:#000000"
     id="use143"
     xlink:href="#p"
     y="80"
     x="70" />
  <use
     height="100%"
     width="100%"
     style="fill:#000000"
     id="use145"
     xlink:href="#p"
     y="120"
     x="70" />
  <use
     height="100%"
     width="100%"
     style="fill:#000000"
     id="use147"
     xlink:href="#p"
     y="140"
     x="70" />
  <use
     height="100%"
     width="100%"
     style="fill:#000000"
     id="use149"
     xlink:href="#p"
     y="160"
     x="70" />
  <use
     height="100%"
     width="100%"
     style="fill:#000000"
     id="use151"
     xlink:href="#p"
     y="220"
     x="70" />
  <use
     height="100%"
     width="100%"
     style="fill:#000000"
     id="use153"
     xlink:href="#p"
     y="20"
     x="80" />
  <use
     height="100%"
     width="100%"
     style="fill:#000000"
     id="use155"
     xlink:href="#p"
     y="30"
     x="80" />
  <use
     height="100%"
     width="100%"
     style="fill:#000000"
     id="use157"
     xlink:href="#p"
     y="40"
     x="80" />
  <use
     height="100%"
     width="100%"
     style="fill:#000000"
     id="use159"
     xlink:href="#p"
     y="50"
     x="80" />
  <use
     height="100%"
     width="100%"
     style="fill:#000000"
     id="use161"
     xlink:href="#p"
     y="60"
     x="80" />
  <use
     height="100%"
     width="100%"
     style="fill:#000000"
     id="use163"
     xlink:href="#p"
     y="70"
     x="80" />
  <use
     height="100%"
     width="100%"
     style="fill:#000000"
     id="use165"
     xlink:href="#p"
     y="80"
     x="80" />
  <use
     height="100%"
     width="100%"
     style="fill:#000000"
     id="use167"
     xlink:href="#p"
     y="100"
     x="80" />
  <use
     height="100%"
     width="100%"
     style="fill:#000000"
     id="use169"
     xlink:href="#p"
     y="120"
     x="80" />
  <use
     height="100%"
     width="100%"
     style="fill:#000000"
     id="use171"
     xlink:href="#p"
     y="140"
     x="80" />
  <use
     height="100%"
     width="100%"
     style="fill:#000000"
     id="use173"
     xlink:href="#p"
     y="160"
     x="80" />
  <use
     height="100%"
     width="100%"
     style="fill:#000000"
     id="use175"
     xlink:href="#p"
     y="170"
     x="80" />
  <use
     height="100%"
     width="100%"
     style="fill:#000000"
     id="use177"
     xlink:href="#p"
     y="180"
     x="80" />
  <use
     height="100%"
     width="100%"
     style="fill:#000000"
     id="use179"
     xlink:href="#p"
     y="190"
     x="80" />
  <use
     height="100%"
     width="100%"
     style="fill:#000000"
     id="use181"
     xlink:href="#p"
     y="200"
     x="80" />
  <use
     height="100%"
     width="100%"
     style="fill:#000000"
     id="use183"
     xlink:href="#p"
     y="210"
     x="80" />
  <use
     height="100%"
     width="100%"
     style="fill:#000000"
     id="use185"
     xlink:href="#p"
     y="220"
     x="80" />
  <use
     height="100%"
     width="100%"
     style="fill:#000000"
     id="use187"
     xlink:href="#p"
     y="100"
     x="90" />
  <use
     height="100%"
     width="100%"
     style="fill:#000000"
     id="use189"
     xlink:href="#p"
     y="110"
     x="90" />
  <use
     height="100%"
     width="100%"
     style="fill:#000000"
     id="use191"
     xlink:href="#p"
     y="130"
     x="90" />
  <use
     height="100%"
     width="100%"
     style="fill:#000000"
     id="use193"
     xlink:href="#p"
     y="30"
     x="100" />
  <use
     height="100%"
     width="100%"
     style="fill:#000000"
     id="use195"
     xlink:href="#p"
     y="40"
     x="100" />
  <use
     height="100%"
     width="100%"
     style="fill:#000000"
     id="use197"
     xlink:href="#p"
     y="60"
     x="100" />
  <use
     height="100%"
     width="100%"
     style="fill:#000000"
     id="use199"
     xlink:href="#p"
     y="70"
     x="100" />
  <use
     height="100%"
     width="100%"
     style="fill:#000000"
     id="use201"
     xlink:href="#p"
     y="80"
     x="100" />
  <use
     height="100%"
     width="100%"
     style="fill:#000000"
     id="use203"
     xlink:href="#p"
     y="90"
     x="100" />
  <use
     height="100%"
     width="100%"
     style="fill:#000000"
     id="use205"
     xlink:href="#p"
     y="110"
     x="100" />
  <use
     height="100%"
     width="100%"
     style="fill:#000000"
     id="use207"
     xlink:href="#p"
     y="120"
     x="100" />
  <use
     height="100%"
     width="100%"
     style="fill:#000000"
     id="use209"
     xlink:href="#p"
     y="140"
     x="100" />
  <use
     height="100%"
     width="100%"
     style="fill:#000000"
     id="use211"
     xlink:href="#p"
     y="150"
     x="100" />
  <use
     height="100%"
     width="100%"
     style="fill:#000000"
     id="use213"
     xlink:href="#p"
     y="160"
     x="100" />
  <use
     height="100%"
     width="100%"
     style="fill:#000000"
     id="use215"
     xlink:href="#p"
     y="190"
     x="100" />
  <use
     height="100%"
     width="100%"
     style="fill:#000000"
     id="use217"
     xlink:href="#p"
     y="210"
     x="100" />
  <use
     height="100%"
     width="100%"
     style="fill:#000000"
     id="use219"
     xlink:href="#p"
     y="220"
     x="100" />
  <use
     height="100%"
     width="100%"
     style="fill:#000000"
     id="use221"
     xlink:href="#p"
     y="20"
     x="110" />
  <use
     height="100%"
     width="100%"
     style="fill:#000000"
     id="use223"
     xlink:href="#p"
     y="30"
     x="110" />
  <use
     height="100%"
     width="100%"
     style="fill:#000000"
     id="use225"
     xlink:href="#p"
     y="40"
     x="110" />
  <use
     height="100%"
     width="100%"
     style="fill:#000000"
     id="use227"
     xlink:href="#p"
     y="50"
     x="110" />
  <use
     height="100%"
     width="100%"
     style="fill:#000000"
     id="use229"
     xlink:href="#p"
     y="90"
     x="110" />
  <use
     height="100%"
     width="100%"
     style="fill:#000000"
     id="use231"
     xlink:href="#p"
     y="100"
     x="110" />
  <use
     height="100%"
     width="100%"
     style="fill:#000000"
     id="use233"
     xlink:href="#p"
     y="120"
     x="110" />
  <use
     height="100%"
     width="100%"
     style="fill:#000000"
     id="use235"
     xlink:href="#p"
     y="130"
     x="110" />
  <use
     height="100%"
     width="100%"
     style="fill:#000000"
     id="use237"
     xlink:href="#p"
     y="140"
     x="110" />
  <use
     height="100%"
     width="100%"
     style="fill:#000000"
     id="use239"
     xlink:href="#p"
     y="150"
     x="110" />
  <use
     height="100%"
     width="100%"
     style="fill:#000000"
     id="use241"
     xlink:href="#p"
     y="160"
     x="110" />
  <use
     height="100%"
     width="100%"
     style="fill:#000000"
     id="use243"
     xlink:href="#p"
     y="190"
     x="110" />
  <use
     height="100%"
     width="100%"
     style="fill:#000000"
     id="use245"
     xlink:href="#p"
     y="200"
     x="110" />
  <use
     height="100%"
     width="100%"
     style="fill:#000000"
     id="use247"
     xlink:href="#p"
     y="210"
     x="110" />
  <use
     height="100%"
     width="100%"
     style="fill:#000000"
     id="use249"
     xlink:href="#p"
     y="80"
     x="120" />
  <use
     height="100%"
     width="100%"
     style="fill:#000000"
     id="use251"
     xlink:href="#p"
     y="90"
     x="120" />
  <use
     height="100%"
     width="100%"
     style="fill:#000000"
     id="use253"
     xlink:href="#p"
     y="100"
     x="120" />
  <use
     height="100%"
     width="100%"
     style="fill:#000000"
     id="use255"
     xlink:href="#p"
     y="130"
     x="120" />
  <use
     height="100%"
     width="100%"
     style="fill:#000000"
     id="use257"
     xlink:href="#p"
     y="150"
     x="120" />
  <use
     height="100%"
     width="100%"
     style="fill:#000000"
     id="use259"
     xlink:href="#p"
     y="200"
     x="120" />
  <use
     height="100%"
     width="100%"
     style="fill:#000000"
     id="use261"
     xlink:href="#p"
     y="220"
     x="120" />
  <use
     height="100%"
     width="100%"
     style="fill:#000000"
     id="use263"
     xlink:href="#p"
     y="30"
     x="130" />
  <use
     height="100%"
     width="100%"
     style="fill:#000000"
     id="use265"
     xlink:href="#p"
     y="70"
     x="130" />
  <use
     height="100%"
     width="100%"
     style="fill:#000000"
     id="use267"
     xlink:href="#p"
     y="90"
     x="130" />
  <use
     height="100%"
     width="100%"
     style="fill:#000000"
     id="use269"
     xlink:href="#p"
     y="110"
     x="130" />
  <use
     height="100%"
     width="100%"
     style="fill:#000000"
     id="use271"
     xlink:href="#p"
     y="120"
     x="130" />
  <use
     height="100%"
     width="100%"
     style="fill:#000000"
     id="use273"
     xlink:href="#p"
     y="140"
     x="130" />
  <use
     height="100%"
     width="100%"
     style="fill:#000000"
     id="use275"
     xlink:href="#p"
     y="150"
     x="130" />
  <use
     height="100%"
     width="100%"
     style="fill:#000000"
     id="use277"
     xlink:href="#p"
     y="160"
     x="130" />
  <use
     height="100%"
     width="100%"
     style="fill:#000000"
     id="use279"
     xlink:href="#p"
     y="170"
     x="130" />
  <use
     height="100%"
     width="100%"
     style="fill:#000000"
     id="use281"
     xlink:href="#p"
     y="180"
     x="130" />
  <use
     height="100%"
     width="100%"
     style="fill:#000000"
     id="use283"
     xlink:href="#p"
     y="200"
     x="130" />
  <use
     height="100%"
     width="100%"
     style="fill:#000000"
     id="use285"
     xlink:href="#p"
     y="220"
     x="130" />
  <use
     height="100%"
     width="100%"
     style="fill:#000000"
     id="use287"
     xlink:href="#p"
     y="20"
     x="140" />
  <use
     height="100%"
     width="100%"
     style="fill:#000000"
     id="use289"
     xlink:href="#p"
     y="40"
     x="140" />
  <use
     height="100%"
     width="100%"
     style="fill:#000000"
     id="use291"
     xlink:href="#p"
     y="80"
     x="140" />
  <use
     height="100%"
     width="100%"
     style="fill:#000000"
     id="use293"
     xlink:href="#p"
     y="100"
     x="140" />
  <use
     height="100%"
     width="100%"
     style="fill:#000000"
     id="use295"
     xlink:href="#p"
     y="110"
     x="140" />
  <use
     height="100%"
     width="100%"
     style="fill:#000000"
     id="use297"
     xlink:href="#p"
     y="120"
     x="140" />
  <use
     height="100%"
     width="100%"
     style="fill:#000000"
     id="use299"
     xlink:href="#p"
     y="130"
     x="140" />
  <use
     height="100%"
     width="100%"
     style="fill:#000000"
     id="use301"
     xlink:href="#p"
     y="150"
     x="140" />
  <use
     height="100%"
     width="100%"
     style="fill:#000000"
     id="use303"
     xlink:href="#p"
     y="160"
     x="140" />
  <use
     height="100%"
     width="100%"
     style="fill:#000000"
     id="use305"
     xlink:href="#p"
     y="170"
     x="140" />
  <use
     height="100%"
     width="100%"
     style="fill:#000000"
     id="use307"
     xlink:href="#p"
     y="190"
     x="140" />
  <use
     height="100%"
     width="100%"
     style="fill:#000000"
     id="use309"
     xlink:href="#p"
     y="200"
     x="140" />
  <use
     height="100%"
     width="100%"
     style="fill:#000000"
     id="use311"
     xlink:href="#p"
     y="140"
     x="150" />
  <use
     height="100%"
     width="100%"
     style="fill:#000000"
     id="use313"
     xlink:href="#p"
     y="180"
     x="150" />
  <use
     height="100%"
     width="100%"
     style="fill:#000000"
     id="use315"
     xlink:href="#p"
     y="210"
     x="150" />
  <use
     height="100%"
     width="100%"
     style="fill:#000000"
     id="use317"
     xlink:href="#p"
     y="20"
     x="160" />
  <use
     height="100%"
     width="100%"
     style="fill:#000000"
     id="use319"
     xlink:href="#p"
     y="30"
     x="160" />
  <use
     height="100%"
     width="100%"
     style="fill:#000000"
     id="use321"
     xlink:href="#p"
     y="40"
     x="160" />
  <use
     height="100%"
     width="100%"
     style="fill:#000000"
     id="use323"
     xlink:href="#p"
     y="50"
     x="160" />
  <use
     height="100%"
     width="100%"
     style="fill:#000000"
     id="use325"
     xlink:href="#p"
     y="60"
     x="160" />
  <use
     height="100%"
     width="100%"
     style="fill:#000000"
     id="use327"
     xlink:href="#p"
     y="70"
     x="160" />
  <use
     height="100%"
     width="100%"
     style="fill:#000000"
     id="use329"
     xlink:href="#p"
     y="80"
     x="160" />
  <use
     height="100%"
     width="100%"
     style="fill:#000000"
     id="use331"
     xlink:href="#p"
     y="100"
     x="160" />
  <use
     height="100%"
     width="100%"
     style="fill:#000000"
     id="use333"
     xlink:href="#p"
     y="120"
     x="160" />
  <use
     height="100%"
     width="100%"
     style="fill:#000000"
     id="use335"
     xlink:href="#p"
     y="130"
     x="160" />
  <use
     height="100%"
     width="100%"
     style="fill:#000000"
     id="use337"
     xlink:href="#p"
     y="160"
     x="160" />
  <use
     height="100%"
     width="100%"
     style="fill:#000000"
     id="use339"
     xlink:href="#p"
     y="200"
     x="160" />
  <use
     height="100%"
     width="100%"
     style="fill:#000000"
     id="use341"
     xlink:href="#p"
     y="220"
     x="160" />
  <use
     height="100%"
     width="100%"
     style="fill:#000000"
     id="use343"
     xlink:href="#p"
     y="20"
     x="170" />
  <use
     height="100%"
     width="100%"
     style="fill:#000000"
     id="use345"
     xlink:href="#p"
     y="80"
     x="170" />
  <use
     height="100%"
     width="100%"
     style="fill:#000000"
     id="use347"
     xlink:href="#p"
     y="100"
     x="170" />
  <use
     height="100%"
     width="100%"
     style="fill:#000000"
     id="use349"
     xlink:href="#p"
     y="110"
     x="170" />
  <use
     height="100%"
     width="100%"
     style="fill:#000000"
     id="use351"
     xlink:href="#p"
     y="120"
     x="170" />
  <use
     height="100%"
     width="100%"
     style="fill:#000000"
     id="use353"
     xlink:href="#p"
     y="130"
     x="170" />
  <use
     height="100%"
     width="100%"
     style="fill:#000000"
     id="use355"
     xlink:href="#p"
     y="150"
     x="170" />
  <use
     height="100%"
     width="100%"
     style="fill:#000000"
     id="use357"
     xlink:href="#p"
     y="160"
     x="170" />
  <use
     height="100%"
     width="100%"
     style="fill:#000000"
     id="use359"
     xlink:href="#p"
     y="180"
     x="170" />
  <use
     height="100%"
     width="100%"
     style="fill:#000000"
     id="use361"
     xlink:href="#p"
     y="190"
     x="170" />
  <use
     height="100%"
     width="100%"
     style="fill:#000000"
     id="use363"
     xlink:href="#p"
     y="200"
     x="170" />
  <use
     height="100%"
     width="100%"
     style="fill:#000000"
     id="use365"
     xlink:href="#p"
     y="210"
     x="170" />
  <use
     height="100%"
     width="100%"
     style="fill:#000000"
     id="use367"
     xlink:href="#p"
     y="20"
     x="180" />
  <use
     height="100%"
     width="100%"
     style="fill:#000000"
     id="use369"
     xlink:href="#p"
     y="40"
     x="180" />
  <use
     height="100%"
     width="100%"
     style="fill:#000000"
     id="use371"
     xlink:href="#p"
     y="50"
     x="180" />
  <use
     height="100%"
     width="100%"
     style="fill:#000000"
     id="use373"
     xlink:href="#p"
     y="60"
     x="180" />
  <use
     height="100%"
     width="100%"
     style="fill:#000000"
     id="use375"
     xlink:href="#p"
     y="80"
     x="180" />
  <use
     height="100%"
     width="100%"
     style="fill:#000000"
     id="use377"
     xlink:href="#p"
     y="100"
     x="180" />
  <use
     height="100%"
     width="100%"
     style="fill:#000000"
     id="use379"
     xlink:href="#p"
     y="110"
     x="180" />
  <use
     height="100%"
     width="100%"
     style="fill:#000000"
     id="use381"
     xlink:href="#p"
     y="130"
     x="180" />
  <use
     height="100%"
     width="100%"
     style="fill:#000000"
     id="use383"
     xlink:href="#p"
     y="140"
     x="180" />
  <use
     height="100%"
     width="100%"
     style="fill:#000000"
     id="use385"
     xlink:href="#p"
     y="160"
     x="180" />
  <use
     height="100%"
     width="100%"
     style="fill:#000000"
     id="use387"
     xlink:href="#p"
     y="170"
     x="180" />
  <use
     height="100%"
     width="100%"
     style="fill:#000000"
     id="use389"
     xlink:href="#p"
     y="180"
     x="180" />
  <use
     height="100%"
     width="100%"
     style="fill:#000000"
     id="use391"
     xlink:href="#p"
     y="190"
     x="180" />
  <use
     height="100%"
     width="100%"
     style="fill:#000000"
     id="use393"
     xlink:href="#p"
     y="200"
     x="180" />
  <use
     height="100%"
     width="100%"
     style="fill:#000000"
     id="use395"
     xlink:href="#p"
     y="220"
     x="180" />
  <use
     height="100%"
     width="100%"
     style="fill:#000000"
     id="use397"
     xlink:href="#p"
     y="20"
     x="190" />
  <use
     height="100%"
     width="100%"
     style="fill:#000000"
     id="use399"
     xlink:href="#p"
     y="40"
     x="190" />
  <use
     height="100%"
     width="100%"
     style="fill:#000000"
     id="use401"
     xlink:href="#p"
     y="50"
     x="190" />
  <use
     height="100%"
     width="100%"
     style="fill:#000000"
     id="use403"
     xlink:href="#p"
     y="60"
     x="190" />
  <use
     height="100%"
     width="100%"
     style="fill:#000000"
     id="use405"
     xlink:href="#p"
     y="80"
     x="190" />
  <use
     height="100%"
     width="100%"
     style="fill:#000000"
     id="use407"
     xlink:href="#p"
     y="130"
     x="190" />
  <use
     height="100%"
     width="100%"
     style="fill:#000000"
     id="use409"
     xlink:href="#p"
     y="140"
     x="190" />
  <use
     height="100%"
     width="100%"
     style="fill:#000000"
     id="use411"
     xlink:href="#p"
     y="160"
     x="190" />
  <use
     height="100%"
     width="100%"
     style="fill:#000000"
     id="use413"
     xlink:href="#p"
     y="190"
     x="190" />
  <use
     height="100%"
     width="100%"
     style="fill:#000000"
     id="use415"
     xlink:href="#p"
     y="200"
     x="190" />
  <use
     height="100%"
     width="100%"
     style="fill:#000000"
     id="use417"
     xlink:href="#p"
     y="20"
     x="200" />
  <use
     height="100%"
     width="100%"
     style="fill:#000000"
     id="use419"
     xlink:href="#p"
     y="40"
     x="200" />
  <use
     height="100%"
     width="100%"
     style="fill:#000000"
     id="use421"
     xlink:href="#p"
     y="50"
     x="200" />
  <use
     height="100%"
     width="100%"
     style="fill:#000000"
     id="use423"
     xlink:href="#p"
     y="60"
     x="200" />
  <use
     height="100%"
     width="100%"
     style="fill:#000000"
     id="use425"
     xlink:href="#p"
     y="80"
     x="200" />
  <use
     height="100%"
     width="100%"
     style="fill:#000000"
     id="use427"
     xlink:href="#p"
     y="100"
     x="200" />
  <use
     height="100%"
     width="100%"
     style="fill:#000000"
     id="use429"
     xlink:href="#p"
     y="110"
     x="200" />
  <use
     height="100%"
     width="100%"
     style="fill:#000000"
     id="use431"
     xlink:href="#p"
     y="160"
     x="200" />
  <use
     height="100%"
     width="100%"
     style="fill:#000000"
     id="use433"
     xlink:href="#p"
     y="200"
     x="200" />
  <use
     height="100%"
     width="100%"
     style="fill:#000000"
     id="use435"
     xlink:href="#p"
     y="20"
     x="210" />
  <use
     height="100%"
     width="100%"
     style="fill:#000000"
     id="use437"
     xlink:href="#p"
     y="80"
     x="210" />
  <use
     height="100%"
     width="100%"
     style="fill:#000000"
     id="use439"
     xlink:href="#p"
     y="100"
     x="210" />
  <use
     height="100%"
     width="100%"
     style="fill:#000000"
     id="use441"
     xlink:href="#p"
     y="110"
     x="210" />
  <use
     height="100%"
     width="100%"
     style="fill:#000000"
     id="use443"
     xlink:href="#p"
     y="160"
     x="210" />
  <use
     height="100%"
     width="100%"
     style="fill:#000000"
     id="use445"
     xlink:href="#p"
     y="190"
     x="210" />
  <use
     height="100%"
     width="100%"
     style="fill:#000000"
     id="use447"
     xlink:href="#p"
     y="220"
     x="210" />
  <use
     height="100%"
     width="100%"
     style="fill:#000000"
     id="use449"
     xlink:href="#p"
     y="20"
     x="220" />
  <use
     height="100%"
     width="100%"
     style="fill:#000000"
     id="use451"
     xlink:href="#p"
     y="30"
     x="220" />
  <use
     height="100%"
     width="100%"
     style="fill:#000000"
     id="use453"
     xlink:href="#p"
     y="40"
     x="220" />
  <use
     height="100%"
     width="100%"
     style="fill:#000000"
     id="use455"
     xlink:href="#p"
     y="50"
     x="220" />
  <use
     height="100%"
     width="100%"
     style="fill:#000000"
     id="use457"
     xlink:href="#p"
     y="60"
     x="220" />
  <use
     height="100%"
     width="100%"
     style="fill:#000000"
     id="use459"
     xlink:href="#p"
     y="70"
     x="220" />
  <use
     height="100%"
     width="100%"
     style="fill:#000000"
     id="use461"
     xlink:href="#p"
     y="80"
     x="220" />
  <use
     height="100%"
     width="100%"
     style="fill:#000000"
     id="use463"
     xlink:href="#p"
     y="110"
     x="220" />
  <use
     height="100%"
     width="100%"
     style="fill:#000000"
     id="use465"
     xlink:href="#p"
     y="120"
     x="220" />
  <use
     height="100%"
     width="100%"
     style="fill:#000000"
     id="use467"
     xlink:href="#p"
     y="130"
     x="220" />
  <use
     height="100%"
     width="100%"
     style="fill:#000000"
     id="use469"
     xlink:href="#p"
     y="150"
     x="220" />
  <use
     height="100%"
     width="100%"
     style="fill:#000000"
     id="use471"
     xlink:href="#p"
     y="170"
     x="220" />
  <use
     height="100%"
     width="100%"
     style="fill:#000000"
     id="use473"
     xlink:href="#p"
     y="190"
     x="220" />
  <use
     height="100%"
     width="100%"
     style="fill:#000000"
     id="use475"
     xlink:href="#p"
     y="200"
     x="220" />
</svg>
