<?xml version="1.0" encoding="utf-8" ?>
<svg baseProfile="full" height="250px" version="1.1" width="250px" xmlns="http://www.w3.org/2000/svg" xmlns:ev="http://www.w3.org/2001/xml-events" xmlns:xlink="http://www.w3.org/1999/xlink"><defs /><rect fill="none" height="10px" stroke="red" stroke-width="0.1mm" width="10px" x="20" y="20" /><rect fill="none" height="10px" stroke="red" stroke-width="0.1mm" width="10px" x="30" y="20" /><rect fill="none" height="10px" stroke="red" stroke-width="0.1mm" width="10px" x="40" y="20" /><rect fill="none" height="10px" stroke="red" stroke-width="0.1mm" width="10px" x="50" y="20" /><rect fill="none" height="10px" stroke="red" stroke-width="0.1mm" width="10px" x="60" y="20" /><rect fill="none" height="10px" stroke="red" stroke-width="0.1mm" width="10px" x="70" y="20" /><rect fill="none" height="10px" stroke="red" stroke-width="0.1mm" width="10px" x="80" y="20" /><rect fill="none" height="10px" stroke="red" stroke-width="0.1mm" width="10px" x="110" y="20" /><rect fill="none" height="10px" stroke="red" stroke-width="0.1mm" width="10px" x="140" y="20" /><rect fill="none" height="10px" stroke="red" stroke-width="0.1mm" width="10px" x="160" y="20" /><rect fill="none" height="10px" stroke="red" stroke-width="0.1mm" width="10px" x="170" y="20" /><rect fill="none" height="10px" stroke="red" stroke-width="0.1mm" width="10px" x="180" y="20" /><rect fill="none" height="10px" stroke="red" stroke-width="0.1mm" width="10px" x="190" y="20" /><rect fill="none" height="10px" stroke="red" stroke-width="0.1mm" width="10px" x="200" y="20" /><rect fill="none" height="10px" stroke="red" stroke-width="0.1mm" width="10px" x="210" y="20" /><rect fill="none" height="10px" stroke="red" stroke-width="0.1mm" width="10px" x="220" y="20" /><rect fill="none" height="10px" stroke="red" stroke-width="0.1mm" width="10px" x="20" y="30" /><rect fill="none" height="10px" stroke="red" stroke-width="0.1mm" width="10px" x="80" y="30" /><rect fill="none" height="10px" stroke="red" stroke-width="0.1mm" width="10px" x="100" y="30" /><rect fill="none" height="10px" stroke="red" stroke-width="0.1mm" width="10px" x="110" y="30" /><rect fill="none" height="10px" stroke="red" stroke-width="0.1mm" width="10px" x="130" y="30" /><rect fill="none" height="10px" stroke="red" stroke-width="0.1mm" width="10px" x="160" y="30" /><rect fill="none" height="10px" stroke="red" stroke-width="0.1mm" width="10px" x="220" y="30" /><rect fill="none" height="10px" stroke="red" stroke-width="0.1mm" width="10px" x="20" y="40" /><rect fill="none" height="10px" stroke="red" stroke-width="0.1mm" width="10px" x="40" y="40" /><rect fill="none" height="10px" stroke="red" stroke-width="0.1mm" width="10px" x="50" y="40" /><rect fill="none" height="10px" stroke="red" stroke-width="0.1mm" width="10px" x="60" y="40" /><rect fill="none" height="10px" stroke="red" stroke-width="0.1mm" width="10px" x="80" y="40" /><rect fill="none" height="10px" stroke="red" stroke-width="0.1mm" width="10px" x="100" y="40" /><rect fill="none" height="10px" stroke="red" stroke-width="0.1mm" width="10px" x="110" y="40" /><rect fill="none" height="10px" stroke="red" stroke-width="0.1mm" width="10px" x="140" y="40" /><rect fill="none" height="10px" stroke="red" stroke-width="0.1mm" width="10px" x="160" y="40" /><rect fill="none" height="10px" stroke="red" stroke-width="0.1mm" width="10px" x="180" y="40" /><rect fill="none" height="10px" stroke="red" stroke-width="0.1mm" width="10px" x="190" y="40" /><rect fill="none" height="10px" stroke="red" stroke-width="0.1mm" width="10px" x="200" y="40" /><rect fill="none" height="10px" stroke="red" stroke-width="0.1mm" width="10px" x="220" y="40" /><rect fill="none" height="10px" stroke="red" stroke-width="0.1mm" width="10px" x="20" y="50" /><rect fill="none" height="10px" stroke="red" stroke-width="0.1mm" width="10px" x="40" y="50" /><rect fill="none" height="10px" stroke="red" stroke-width="0.1mm" width="10px" x="50" y="50" /><rect fill="none" height="10px" stroke="red" stroke-width="0.1mm" width="10px" x="60" y="50" /><rect fill="none" height="10px" stroke="red" stroke-width="0.1mm" width="10px" x="80" y="50" /><rect fill="none" height="10px" stroke="red" stroke-width="0.1mm" width="10px" x="110" y="50" /><rect fill="none" height="10px" stroke="red" stroke-width="0.1mm" width="10px" x="160" y="50" /><rect fill="none" height="10px" stroke="red" stroke-width="0.1mm" width="10px" x="180" y="50" /><rect fill="none" height="10px" stroke="red" stroke-width="0.1mm" width="10px" x="190" y="50" /><rect fill="none" height="10px" stroke="red" stroke-width="0.1mm" width="10px" x="200" y="50" /><rect fill="none" height="10px" stroke="red" stroke-width="0.1mm" width="10px" x="220" y="50" /><rect fill="none" height="10px" stroke="red" stroke-width="0.1mm" width="10px" x="20" y="60" /><rect fill="none" height="10px" stroke="red" stroke-width="0.1mm" width="10px" x="40" y="60" /><rect fill="none" height="10px" stroke="red" stroke-width="0.1mm" width="10px" x="50" y="60" /><rect fill="none" height="10px" stroke="red" stroke-width="0.1mm" width="10px" x="60" y="60" /><rect fill="none" height="10px" stroke="red" stroke-width="0.1mm" width="10px" x="80" y="60" /><rect fill="none" height="10px" stroke="red" stroke-width="0.1mm" width="10px" x="100" y="60" /><rect fill="none" height="10px" stroke="red" stroke-width="0.1mm" width="10px" x="160" y="60" /><rect fill="none" height="10px" stroke="red" stroke-width="0.1mm" width="10px" x="180" y="60" /><rect fill="none" height="10px" stroke="red" stroke-width="0.1mm" width="10px" x="190" y="60" /><rect fill="none" height="10px" stroke="red" stroke-width="0.1mm" width="10px" x="200" y="60" /><rect fill="none" height="10px" stroke="red" stroke-width="0.1mm" width="10px" x="220" y="60" /><rect fill="none" height="10px" stroke="red" stroke-width="0.1mm" width="10px" x="20" y="70" /><rect fill="none" height="10px" stroke="red" stroke-width="0.1mm" width="10px" x="80" y="70" /><rect fill="none" height="10px" stroke="red" stroke-width="0.1mm" width="10px" x="100" y="70" /><rect fill="none" height="10px" stroke="red" stroke-width="0.1mm" width="10px" x="130" y="70" /><rect fill="none" height="10px" stroke="red" stroke-width="0.1mm" width="10px" x="160" y="70" /><rect fill="none" height="10px" stroke="red" stroke-width="0.1mm" width="10px" x="220" y="70" /><rect fill="none" height="10px" stroke="red" stroke-width="0.1mm" width="10px" x="20" y="80" /><rect fill="none" height="10px" stroke="red" stroke-width="0.1mm" width="10px" x="30" y="80" /><rect fill="none" height="10px" stroke="red" stroke-width="0.1mm" width="10px" x="40" y="80" /><rect fill="none" height="10px" stroke="red" stroke-width="0.1mm" width="10px" x="50" y="80" /><rect fill="none" height="10px" stroke="red" stroke-width="0.1mm" width="10px" x="60" y="80" /><rect fill="none" height="10px" stroke="red" stroke-width="0.1mm" width="10px" x="70" y="80" /><rect fill="none" height="10px" stroke="red" stroke-width="0.1mm" width="10px" x="80" y="80" /><rect fill="none" height="10px" stroke="red" stroke-width="0.1mm" width="10px" x="100" y="80" /><rect fill="none" height="10px" stroke="red" stroke-width="0.1mm" width="10px" x="120" y="80" /><rect fill="none" height="10px" stroke="red" stroke-width="0.1mm" width="10px" x="140" y="80" /><rect fill="none" height="10px" stroke="red" stroke-width="0.1mm" width="10px" x="160" y="80" /><rect fill="none" height="10px" stroke="red" stroke-width="0.1mm" width="10px" x="170" y="80" /><rect fill="none" height="10px" stroke="red" stroke-width="0.1mm" width="10px" x="180" y="80" /><rect fill="none" height="10px" stroke="red" stroke-width="0.1mm" width="10px" x="190" y="80" /><rect fill="none" height="10px" stroke="red" stroke-width="0.1mm" width="10px" x="200" y="80" /><rect fill="none" height="10px" stroke="red" stroke-width="0.1mm" width="10px" x="210" y="80" /><rect fill="none" height="10px" stroke="red" stroke-width="0.1mm" width="10px" x="220" y="80" /><rect fill="none" height="10px" stroke="red" stroke-width="0.1mm" width="10px" x="100" y="90" /><rect fill="none" height="10px" stroke="red" stroke-width="0.1mm" width="10px" x="110" y="90" /><rect fill="none" height="10px" stroke="red" stroke-width="0.1mm" width="10px" x="120" y="90" /><rect fill="none" height="10px" stroke="red" stroke-width="0.1mm" width="10px" x="130" y="90" /><rect fill="none" height="10px" stroke="red" stroke-width="0.1mm" width="10px" x="20" y="100" /><rect fill="none" height="10px" stroke="red" stroke-width="0.1mm" width="10px" x="30" y="100" /><rect fill="none" height="10px" stroke="red" stroke-width="0.1mm" width="10px" x="50" y="100" /><rect fill="none" height="10px" stroke="red" stroke-width="0.1mm" width="10px" x="80" y="100" /><rect fill="none" height="10px" stroke="red" stroke-width="0.1mm" width="10px" x="90" y="100" /><rect fill="none" height="10px" stroke="red" stroke-width="0.1mm" width="10px" x="110" y="100" /><rect fill="none" height="10px" stroke="red" stroke-width="0.1mm" width="10px" x="120" y="100" /><rect fill="none" height="10px" stroke="red" stroke-width="0.1mm" width="10px" x="140" y="100" /><rect fill="none" height="10px" stroke="red" stroke-width="0.1mm" width="10px" x="160" y="100" /><rect fill="none" height="10px" stroke="red" stroke-width="0.1mm" width="10px" x="170" y="100" /><rect fill="none" height="10px" stroke="red" stroke-width="0.1mm" width="10px" x="180" y="100" /><rect fill="none" height="10px" stroke="red" stroke-width="0.1mm" width="10px" x="200" y="100" /><rect fill="none" height="10px" stroke="red" stroke-width="0.1mm" width="10px" x="210" y="100" /><rect fill="none" height="10px" stroke="red" stroke-width="0.1mm" width="10px" x="20" y="110" /><rect fill="none" height="10px" stroke="red" stroke-width="0.1mm" width="10px" x="40" y="110" /><rect fill="none" height="10px" stroke="red" stroke-width="0.1mm" width="10px" x="60" y="110" /><rect fill="none" height="10px" stroke="red" stroke-width="0.1mm" width="10px" x="90" y="110" /><rect fill="none" height="10px" stroke="red" stroke-width="0.1mm" width="10px" x="100" y="110" /><rect fill="none" height="10px" stroke="red" stroke-width="0.1mm" width="10px" x="130" y="110" /><rect fill="none" height="10px" stroke="red" stroke-width="0.1mm" width="10px" x="140" y="110" /><rect fill="none" height="10px" stroke="red" stroke-width="0.1mm" width="10px" x="170" y="110" /><rect fill="none" height="10px" stroke="red" stroke-width="0.1mm" width="10px" x="180" y="110" /><rect fill="none" height="10px" stroke="red" stroke-width="0.1mm" width="10px" x="200" y="110" /><rect fill="none" height="10px" stroke="red" stroke-width="0.1mm" width="10px" x="210" y="110" /><rect fill="none" height="10px" stroke="red" stroke-width="0.1mm" width="10px" x="220" y="110" /><rect fill="none" height="10px" stroke="red" stroke-width="0.1mm" width="10px" x="20" y="120" /><rect fill="none" height="10px" stroke="red" stroke-width="0.1mm" width="10px" x="30" y="120" /><rect fill="none" height="10px" stroke="red" stroke-width="0.1mm" width="10px" x="60" y="120" /><rect fill="none" height="10px" stroke="red" stroke-width="0.1mm" width="10px" x="70" y="120" /><rect fill="none" height="10px" stroke="red" stroke-width="0.1mm" width="10px" x="80" y="120" /><rect fill="none" height="10px" stroke="red" stroke-width="0.1mm" width="10px" x="100" y="120" /><rect fill="none" height="10px" stroke="red" stroke-width="0.1mm" width="10px" x="110" y="120" /><rect fill="none" height="10px" stroke="red" stroke-width="0.1mm" width="10px" x="130" y="120" /><rect fill="none" height="10px" stroke="red" stroke-width="0.1mm" width="10px" x="140" y="120" /><rect fill="none" height="10px" stroke="red" stroke-width="0.1mm" width="10px" x="160" y="120" /><rect fill="none" height="10px" stroke="red" stroke-width="0.1mm" width="10px" x="170" y="120" /><rect fill="none" height="10px" stroke="red" stroke-width="0.1mm" width="10px" x="220" y="120" /><rect fill="none" height="10px" stroke="red" stroke-width="0.1mm" width="10px" x="20" y="130" /><rect fill="none" height="10px" stroke="red" stroke-width="0.1mm" width="10px" x="40" y="130" /><rect fill="none" height="10px" stroke="red" stroke-width="0.1mm" width="10px" x="50" y="130" /><rect fill="none" height="10px" stroke="red" stroke-width="0.1mm" width="10px" x="60" y="130" /><rect fill="none" height="10px" stroke="red" stroke-width="0.1mm" width="10px" x="90" y="130" /><rect fill="none" height="10px" stroke="red" stroke-width="0.1mm" width="10px" x="110" y="130" /><rect fill="none" height="10px" stroke="red" stroke-width="0.1mm" width="10px" x="120" y="130" /><rect fill="none" height="10px" stroke="red" stroke-width="0.1mm" width="10px" x="140" y="130" /><rect fill="none" height="10px" stroke="red" stroke-width="0.1mm" width="10px" x="160" y="130" /><rect fill="none" height="10px" stroke="red" stroke-width="0.1mm" width="10px" x="170" y="130" /><rect fill="none" height="10px" stroke="red" stroke-width="0.1mm" width="10px" x="180" y="130" /><rect fill="none" height="10px" stroke="red" stroke-width="0.1mm" width="10px" x="190" y="130" /><rect fill="none" height="10px" stroke="red" stroke-width="0.1mm" width="10px" x="220" y="130" /><rect fill="none" height="10px" stroke="red" stroke-width="0.1mm" width="10px" x="30" y="140" /><rect fill="none" height="10px" stroke="red" stroke-width="0.1mm" width="10px" x="40" y="140" /><rect fill="none" height="10px" stroke="red" stroke-width="0.1mm" width="10px" x="50" y="140" /><rect fill="none" height="10px" stroke="red" stroke-width="0.1mm" width="10px" x="70" y="140" /><rect fill="none" height="10px" stroke="red" stroke-width="0.1mm" width="10px" x="80" y="140" /><rect fill="none" height="10px" stroke="red" stroke-width="0.1mm" width="10px" x="100" y="140" /><rect fill="none" height="10px" stroke="red" stroke-width="0.1mm" width="10px" x="110" y="140" /><rect fill="none" height="10px" stroke="red" stroke-width="0.1mm" width="10px" x="130" y="140" /><rect fill="none" height="10px" stroke="red" stroke-width="0.1mm" width="10px" x="150" y="140" /><rect fill="none" height="10px" stroke="red" stroke-width="0.1mm" width="10px" x="180" y="140" /><rect fill="none" height="10px" stroke="red" stroke-width="0.1mm" width="10px" x="190" y="140" /><rect fill="none" height="10px" stroke="red" stroke-width="0.1mm" width="10px" x="100" y="150" /><rect fill="none" height="10px" stroke="red" stroke-width="0.1mm" width="10px" x="110" y="150" /><rect fill="none" height="10px" stroke="red" stroke-width="0.1mm" width="10px" x="120" y="150" /><rect fill="none" height="10px" stroke="red" stroke-width="0.1mm" width="10px" x="130" y="150" /><rect fill="none" height="10px" stroke="red" stroke-width="0.1mm" width="10px" x="140" y="150" /><rect fill="none" height="10px" stroke="red" stroke-width="0.1mm" width="10px" x="170" y="150" /><rect fill="none" height="10px" stroke="red" stroke-width="0.1mm" width="10px" x="220" y="150" /><rect fill="none" height="10px" stroke="red" stroke-width="0.1mm" width="10px" x="20" y="160" /><rect fill="none" height="10px" stroke="red" stroke-width="0.1mm" width="10px" x="30" y="160" /><rect fill="none" height="10px" stroke="red" stroke-width="0.1mm" width="10px" x="40" y="160" /><rect fill="none" height="10px" stroke="red" stroke-width="0.1mm" width="10px" x="50" y="160" /><rect fill="none" height="10px" stroke="red" stroke-width="0.1mm" width="10px" x="60" y="160" /><rect fill="none" height="10px" stroke="red" stroke-width="0.1mm" width="10px" x="70" y="160" /><rect fill="none" height="10px" stroke="red" stroke-width="0.1mm" width="10px" x="80" y="160" /><rect fill="none" height="10px" stroke="red" stroke-width="0.1mm" width="10px" x="100" y="160" /><rect fill="none" height="10px" stroke="red" stroke-width="0.1mm" width="10px" x="110" y="160" /><rect fill="none" height="10px" stroke="red" stroke-width="0.1mm" width="10px" x="130" y="160" /><rect fill="none" height="10px" stroke="red" stroke-width="0.1mm" width="10px" x="140" y="160" /><rect fill="none" height="10px" stroke="red" stroke-width="0.1mm" width="10px" x="160" y="160" /><rect fill="none" height="10px" stroke="red" stroke-width="0.1mm" width="10px" x="170" y="160" /><rect fill="none" height="10px" stroke="red" stroke-width="0.1mm" width="10px" x="180" y="160" /><rect fill="none" height="10px" stroke="red" stroke-width="0.1mm" width="10px" x="190" y="160" /><rect fill="none" height="10px" stroke="red" stroke-width="0.1mm" width="10px" x="200" y="160" /><rect fill="none" height="10px" stroke="red" stroke-width="0.1mm" width="10px" x="210" y="160" /><rect fill="none" height="10px" stroke="red" stroke-width="0.1mm" width="10px" x="20" y="170" /><rect fill="none" height="10px" stroke="red" stroke-width="0.1mm" width="10px" x="80" y="170" /><rect fill="none" height="10px" stroke="red" stroke-width="0.1mm" width="10px" x="130" y="170" /><rect fill="none" height="10px" stroke="red" stroke-width="0.1mm" width="10px" x="140" y="170" /><rect fill="none" height="10px" stroke="red" stroke-width="0.1mm" width="10px" x="180" y="170" /><rect fill="none" height="10px" stroke="red" stroke-width="0.1mm" width="10px" x="220" y="170" /><rect fill="none" height="10px" stroke="red" stroke-width="0.1mm" width="10px" x="20" y="180" /><rect fill="none" height="10px" stroke="red" stroke-width="0.1mm" width="10px" x="40" y="180" /><rect fill="none" height="10px" stroke="red" stroke-width="0.1mm" width="10px" x="50" y="180" /><rect fill="none" height="10px" stroke="red" stroke-width="0.1mm" width="10px" x="60" y="180" /><rect fill="none" height="10px" stroke="red" stroke-width="0.1mm" width="10px" x="80" y="180" /><rect fill="none" height="10px" stroke="red" stroke-width="0.1mm" width="10px" x="130" y="180" /><rect fill="none" height="10px" stroke="red" stroke-width="0.1mm" width="10px" x="150" y="180" /><rect fill="none" height="10px" stroke="red" stroke-width="0.1mm" width="10px" x="170" y="180" /><rect fill="none" height="10px" stroke="red" stroke-width="0.1mm" width="10px" x="180" y="180" /><rect fill="none" height="10px" stroke="red" stroke-width="0.1mm" width="10px" x="20" y="190" /><rect fill="none" height="10px" stroke="red" stroke-width="0.1mm" width="10px" x="40" y="190" /><rect fill="none" height="10px" stroke="red" stroke-width="0.1mm" width="10px" x="50" y="190" /><rect fill="none" height="10px" stroke="red" stroke-width="0.1mm" width="10px" x="60" y="190" /><rect fill="none" height="10px" stroke="red" stroke-width="0.1mm" width="10px" x="80" y="190" /><rect fill="none" height="10px" stroke="red" stroke-width="0.1mm" width="10px" x="100" y="190" /><rect fill="none" height="10px" stroke="red" stroke-width="0.1mm" width="10px" x="110" y="190" /><rect fill="none" height="10px" stroke="red" stroke-width="0.1mm" width="10px" x="140" y="190" /><rect fill="none" height="10px" stroke="red" stroke-width="0.1mm" width="10px" x="170" y="190" /><rect fill="none" height="10px" stroke="red" stroke-width="0.1mm" width="10px" x="180" y="190" /><rect fill="none" height="10px" stroke="red" stroke-width="0.1mm" width="10px" x="190" y="190" /><rect fill="none" height="10px" stroke="red" stroke-width="0.1mm" width="10px" x="210" y="190" /><rect fill="none" height="10px" stroke="red" stroke-width="0.1mm" width="10px" x="220" y="190" /><rect fill="none" height="10px" stroke="red" stroke-width="0.1mm" width="10px" x="20" y="200" /><rect fill="none" height="10px" stroke="red" stroke-width="0.1mm" width="10px" x="40" y="200" /><rect fill="none" height="10px" stroke="red" stroke-width="0.1mm" width="10px" x="50" y="200" /><rect fill="none" height="10px" stroke="red" stroke-width="0.1mm" width="10px" x="60" y="200" /><rect fill="none" height="10px" stroke="red" stroke-width="0.1mm" width="10px" x="80" y="200" /><rect fill="none" height="10px" stroke="red" stroke-width="0.1mm" width="10px" x="110" y="200" /><rect fill="none" height="10px" stroke="red" stroke-width="0.1mm" width="10px" x="120" y="200" /><rect fill="none" height="10px" stroke="red" stroke-width="0.1mm" width="10px" x="130" y="200" /><rect fill="none" height="10px" stroke="red" stroke-width="0.1mm" width="10px" x="140" y="200" /><rect fill="none" height="10px" stroke="red" stroke-width="0.1mm" width="10px" x="160" y="200" /><rect fill="none" height="10px" stroke="red" stroke-width="0.1mm" width="10px" x="170" y="200" /><rect fill="none" height="10px" stroke="red" stroke-width="0.1mm" width="10px" x="180" y="200" /><rect fill="none" height="10px" stroke="red" stroke-width="0.1mm" width="10px" x="190" y="200" /><rect fill="none" height="10px" stroke="red" stroke-width="0.1mm" width="10px" x="200" y="200" /><rect fill="none" height="10px" stroke="red" stroke-width="0.1mm" width="10px" x="220" y="200" /><rect fill="none" height="10px" stroke="red" stroke-width="0.1mm" width="10px" x="20" y="210" /><rect fill="none" height="10px" stroke="red" stroke-width="0.1mm" width="10px" x="80" y="210" /><rect fill="none" height="10px" stroke="red" stroke-width="0.1mm" width="10px" x="100" y="210" /><rect fill="none" height="10px" stroke="red" stroke-width="0.1mm" width="10px" x="110" y="210" /><rect fill="none" height="10px" stroke="red" stroke-width="0.1mm" width="10px" x="150" y="210" /><rect fill="none" height="10px" stroke="red" stroke-width="0.1mm" width="10px" x="170" y="210" /><rect fill="none" height="10px" stroke="red" stroke-width="0.1mm" width="10px" x="20" y="220" /><rect fill="none" height="10px" stroke="red" stroke-width="0.1mm" width="10px" x="30" y="220" /><rect fill="none" height="10px" stroke="red" stroke-width="0.1mm" width="10px" x="40" y="220" /><rect fill="none" height="10px" stroke="red" stroke-width="0.1mm" width="10px" x="50" y="220" /><rect fill="none" height="10px" stroke="red" stroke-width="0.1mm" width="10px" x="60" y="220" /><rect fill="none" height="10px" stroke="red" stroke-width="0.1mm" width="10px" x="70" y="220" /><rect fill="none" height="10px" stroke="red" stroke-width="0.1mm" width="10px" x="80" y="220" /><rect fill="none" height="10px" stroke="red" stroke-width="0.1mm" width="10px" x="100" y="220" /><rect fill="none" height="10px" stroke="red" stroke-width="0.1mm" width="10px" x="120" y="220" /><rect fill="none" height="10px" stroke="red" stroke-width="0.1mm" width="10px" x="130" y="220" /><rect fill="none" height="10px" stroke="red" stroke-width="0.1mm" width="10px" x="160" y="220" /><rect fill="none" height="10px" stroke="red" stroke-width="0.1mm" width="10px" x="180" y="220" /><rect fill="none" height="10px" stroke="red" stroke-width="0.1mm" width="10px" x="210" y="220" /></svg>